<svg width="729" height="306" viewBox="0 0 729 306" fill="none" xmlns="http://www.w3.org/2000/svg">
<g clip-path="url(#clip0_233_27202)">
<path d="M653.051 30.6798H649.652L647.778 33.5155L603.15 101.05L558.952 33.5382L557.081 30.6798H553.664H487.019H475.052L481.799 40.5632L529.402 110.303L529.408 110.312C549.235 139.258 557.073 150.408 562.622 157.286C557.009 164.297 548.893 175.332 529.43 203.389L529.429 203.39L478.806 276.399L471.927 286.32H484H543.679H547.025L548.906 283.553L598.17 211.085L645.918 283.48L647.791 286.32H651.194H719H730.947L724.225 276.444L674.531 203.435L674.524 203.424L673.779 202.335C654.189 173.677 645.661 161.203 639.953 154.178C645.626 146.995 653.759 135.744 671.446 110.755L671.457 110.739L671.468 110.724L720.465 40.6207L727.413 30.6798H715.285H653.051Z" stroke="black" stroke-width="12.6404"/>
<path d="M95.375 155.051H157.952L140.206 178H95.375C64.4199 178 41.6039 158.386 41.6039 132.501C41.6039 106.35 64.4199 88.7374 95.375 88.7374H157.952L140.206 111.954H95.375C80.4312 111.954 69.2233 120.893 69.2233 133.702C69.2233 146.378 80.2978 155.051 95.375 155.051ZM283.487 88.7374V139.039C283.487 165.992 264.941 179.468 227.848 179.468C184.885 179.468 166.338 165.992 166.338 139.039V88.7374H193.824V139.039C193.824 152.249 199.428 156.518 227.848 156.518C249.063 156.518 255.734 151.581 255.734 139.039V88.7374H283.487ZM326.761 155.051H395.877L377.997 178H299.142V88.7374H326.761V155.051ZM397.74 88.7374H499.145L481.266 111.954H449.377V178H421.757V111.954H379.861L397.74 88.7374Z" fill="black"/>
<path d="M109.822 192.867H128.015L149.576 224.671L172.067 192.867H189.545L158.888 236.203C156.81 238.996 153.874 241.575 149.289 241.575C144.848 241.575 141.912 239.211 139.834 236.203L109.822 192.867ZM209.728 228.467H250.485L240.958 240.787H194.829V192.867H250.341L240.743 205.331H209.728V211.061H247.691L239.167 221.949H209.728V228.467ZM314.711 231.475L323.522 240.787H303.68L293.008 228.109H270.23V240.787H255.402V216.29H297.091C301.675 216.29 305.256 214.213 305.256 210.918C305.256 207.193 302.176 205.331 297.091 205.331H255.402L265.072 192.867H295.873C306.761 192.867 320.513 196.305 320.513 209.987C320.513 217.436 315.857 223.596 307.978 225.172C309.626 226.39 311.416 228.109 314.711 231.475ZM347.191 211.992H373.264C384.939 211.992 391.243 216.362 391.243 225.1C391.243 234.914 385.297 240.787 370.685 240.787H326.06L335.587 228.467H371.831C375.341 228.467 376.917 227.464 376.917 224.957C376.917 222.522 375.341 221.519 371.831 221.519H345.758C333.438 221.519 327.779 216.003 327.779 207.766C327.779 198.741 333.796 192.867 348.337 192.867H389.953L380.427 205.331H347.191C343.753 205.331 342.105 206.19 342.105 208.626C342.105 211.061 343.753 211.992 347.191 211.992ZM412.724 228.467H453.481L443.954 240.787H397.825V192.867H453.337L443.739 205.331H412.724V211.061H450.687L442.163 221.949H412.724V228.467Z" fill="#FF4500"/>
</g>
<defs>
<clipPath id="clip0_233_27202">
<rect width="729" height="306" fill="white"/>
</clipPath>
</defs>
</svg>
